{"title":"How.to.Save.Us.2014.WEBRip.480p.x264.AAC-VYTO [P2PDL]","uid":12959830,"size":297989677,"categoryP":"video","categoryS":"movies","magnet":"?xt=urn:btih:5c06bbf5de5de6056d3b35ad0818edffac50d4f1&amp;dn=How.to.Save.Us.2014.WEBRip.480p.x264.AAC-VYTO+%5BP2PDL%5D&amp;tr=udp%3A%2F%2Ftracker.leechers-paradise.org%3A6969&amp;tr=udp%3A%2F%2Fzer0day.ch%3A1337&amp;tr=udp%3A%2F%2Fopen.demonii.com%3A1337&amp;tr=udp%3A%2F%2Ftracker.coppersurfer.tk%3A6969&amp;tr=udp%3A%2F%2Fexodus.desync.com%3A6969","seeders":0,"leechers":1,"uploader":"VYTOP2PDL","files":6,"time":1449835617,"description":"____    ____ ____    ____ .___________.  ______   \r\n     /   /      /   / |           | /  __    \r\n    /   /      /   /  `---|  |----`|  |  |  | \r\n        /     _    _/       |  |     |  |  |  | \r\n       /        |  |         |  |     |  `--'  | \r\n    __/         |__|         |__|      ______/  \r\n                                                  \r\nPresenting Small Encodes with quality for years!\r\n                                                                                                   \r\n                                                                                                   \r\n\r\nHow.to.Save.Us.2014.WEBRip.480p.x264.AAC-VYTO\r\n\r\n\r\nGenre: Drama, Horror, Sci-Fi    \nhttp://www.imdb.com/title/tt3466248/\r\n\r\n\r\nFormat                                   : MPEG-4\r\nFile size                                : 276 MiB\r\nDuration                                 : 1h 17mn\r\nOverall bit rate                         : 498 Kbps\r\n\r\nVideo\r\nFormat                                   : AVC\r\nBit rate                                 : 463 Kbps\r\nWidth                                    : 720 pixels\r\nHeight                                   : 304 pixels\r\nDisplay aspect ratio                     : 2.35:1\r\nFrame rate mode                          : Constant\r\nFrame rate                               : 25.000 fps\r\nBit depth                                : 8 bits\r\nStream size                              : 257 MiB (93%)\r\nWriting library                          : x264\r\n\r\nAudio\r\nFormat                                   : AAC\r\nBit rate mode                            : Variable\r\nBit rate                                 : 32.0 Kbps\r\nChannel(s)                               : 2 channels \r\nChannel positions                        : Front: L R \r\nSampling rate                            : 48.0 KHz\r\nStream size                              : 17.8 MiB (6%)\r\nLanguage                                 : English\r\n\r\nSubtitle                                 : N/a\r\n\r\nScreen Shots: (Click to view)\r\n \nhttp://ititli.com/BJ \nhttp://ititli.com/B5 \nhttp://ititli.com/BB \nhttp://ititli.com/BN \nhttp://ititli.com/BP \nhttp://ititli.com/Bf \nhttp://ititli.com/Bu \nhttp://ititli.com/Bv \nhttp://ititli.com/BR\r\n\r\n----------------------------------------------------------------------------------------------------\r\n\r\n\r\nEncoder Notes: Looking For Early Access To Anything You Can Provide WEBDL, DVDScr, DVDR, BluRay,\r\nDirect Audio, Music Releases and Seedboxes. If You Got anything to offer please contact us.\r\n\r\nSupport us by donating BC - 1FgwdzPsd1y25Gea8wP1qni35uGCtmkRCD\r\n\r\nSend some love!\r\nFind us and join us!","torrent":{"xt":"urn:btih:5c06bbf5de5de6056d3b35ad0818edffac50d4f1","amp;dn":"How.to.Save.Us.2014.WEBRip.480p.x264.AAC-VYTO+%5BP2PDL%5D","amp;tr":["udp%3A%2F%2Ftracker.leechers-paradise.org%3A6969","udp%3A%2F%2Fzer0day.ch%3A1337","udp%3A%2F%2Fopen.demonii.com%3A1337","udp%3A%2F%2Ftracker.coppersurfer.tk%3A6969","udp%3A%2F%2Fexodus.desync.com%3A6969"],"infoHash":"5c06bbf5de5de6056d3b35ad0818edffac50d4f1","infoHashBuffer":{"type":"Buffer","data":[92,6,187,245,222,93,230,5,109,59,53,173,8,24,237,255,172,80,212,241]},"announce":[],"urlList":[]}}